<mxfile host="app.diagrams.net" agent="Mozilla/5.0 (Windows NT 10.0; Win64; x64) AppleWebKit/537.36 (KHTML, like Gecko) Chrome/135.0.0.0 Safari/537.36 Edg/135.0.0.0" version="26.1.0">
  <diagram name="第 1 页" id="M4KpRr9EKxmZV-fE4hjS">
    <mxGraphModel dx="1458" dy="1025" grid="1" gridSize="10" guides="1" tooltips="1" connect="1" arrows="1" fold="1" page="1" pageScale="1" pageWidth="827" pageHeight="1169" math="0" shadow="0">
      <root>
        <mxCell id="0" />
        <mxCell id="1" parent="0" />
        <mxCell id="rJWWysvKdObHL5cOJZoD-1" style="edgeStyle=none;curved=1;rounded=0;orthogonalLoop=1;jettySize=auto;html=1;fontSize=12;startSize=8;endSize=8;" edge="1" parent="1" source="WwEldn8JN8eeW2-9IUpF-1" target="WwEldn8JN8eeW2-9IUpF-2">
          <mxGeometry relative="1" as="geometry" />
        </mxCell>
        <mxCell id="WwEldn8JN8eeW2-9IUpF-1" value="开始" style="rounded=1;whiteSpace=wrap;html=1;arcSize=50;" parent="1" vertex="1">
          <mxGeometry x="60" y="304.5" width="121" height="40" as="geometry" />
        </mxCell>
        <mxCell id="rJWWysvKdObHL5cOJZoD-2" style="edgeStyle=none;curved=1;rounded=0;orthogonalLoop=1;jettySize=auto;html=1;entryX=0;entryY=0.5;entryDx=0;entryDy=0;fontSize=12;startSize=8;endSize=8;" edge="1" parent="1" source="WwEldn8JN8eeW2-9IUpF-2" target="WwEldn8JN8eeW2-9IUpF-6">
          <mxGeometry relative="1" as="geometry" />
        </mxCell>
        <mxCell id="rJWWysvKdObHL5cOJZoD-10" value="通过" style="edgeLabel;html=1;align=center;verticalAlign=middle;resizable=0;points=[];fontSize=12;" vertex="1" connectable="0" parent="rJWWysvKdObHL5cOJZoD-2">
          <mxGeometry x="-0.2462" relative="1" as="geometry">
            <mxPoint as="offset" />
          </mxGeometry>
        </mxCell>
        <mxCell id="WwEldn8JN8eeW2-9IUpF-2" value="输入登录密码" style="rounded=0;whiteSpace=wrap;html=1;" parent="1" vertex="1">
          <mxGeometry x="220" y="294.5" width="120" height="60" as="geometry" />
        </mxCell>
        <mxCell id="rJWWysvKdObHL5cOJZoD-3" style="edgeStyle=none;curved=1;rounded=0;orthogonalLoop=1;jettySize=auto;html=1;entryX=0;entryY=0.5;entryDx=0;entryDy=0;fontSize=12;startSize=8;endSize=8;" edge="1" parent="1" source="WwEldn8JN8eeW2-9IUpF-6" target="WwEldn8JN8eeW2-9IUpF-11">
          <mxGeometry relative="1" as="geometry" />
        </mxCell>
        <mxCell id="rJWWysvKdObHL5cOJZoD-9" style="edgeStyle=orthogonalEdgeStyle;rounded=0;orthogonalLoop=1;jettySize=auto;html=1;entryX=0.5;entryY=0;entryDx=0;entryDy=0;fontSize=12;startSize=8;endSize=8;exitX=0.5;exitY=0;exitDx=0;exitDy=0;" edge="1" parent="1" source="WwEldn8JN8eeW2-9IUpF-6" target="WwEldn8JN8eeW2-9IUpF-2">
          <mxGeometry relative="1" as="geometry">
            <mxPoint x="407.0000000000002" y="294.5000000000001" as="sourcePoint" />
            <mxPoint x="300" y="264.5" as="targetPoint" />
          </mxGeometry>
        </mxCell>
        <mxCell id="rJWWysvKdObHL5cOJZoD-11" value="不通过" style="edgeLabel;html=1;align=center;verticalAlign=middle;resizable=0;points=[];fontSize=12;" vertex="1" connectable="0" parent="rJWWysvKdObHL5cOJZoD-9">
          <mxGeometry x="-0.1283" y="-1" relative="1" as="geometry">
            <mxPoint as="offset" />
          </mxGeometry>
        </mxCell>
        <mxCell id="WwEldn8JN8eeW2-9IUpF-6" value="前端校验格式" style="rhombus;whiteSpace=wrap;html=1;" parent="1" vertex="1">
          <mxGeometry x="387" y="260" width="126" height="129" as="geometry" />
        </mxCell>
        <mxCell id="rJWWysvKdObHL5cOJZoD-4" style="edgeStyle=none;curved=1;rounded=0;orthogonalLoop=1;jettySize=auto;html=1;entryX=0;entryY=0.5;entryDx=0;entryDy=0;fontSize=12;startSize=8;endSize=8;" edge="1" parent="1" source="WwEldn8JN8eeW2-9IUpF-11" target="WwEldn8JN8eeW2-9IUpF-13">
          <mxGeometry relative="1" as="geometry" />
        </mxCell>
        <mxCell id="WwEldn8JN8eeW2-9IUpF-11" value="后端校验密码是否正确" style="rounded=0;whiteSpace=wrap;html=1;" parent="1" vertex="1">
          <mxGeometry x="561" y="294.5" width="120" height="60" as="geometry" />
        </mxCell>
        <mxCell id="rJWWysvKdObHL5cOJZoD-5" style="edgeStyle=none;curved=1;rounded=0;orthogonalLoop=1;jettySize=auto;html=1;entryX=0;entryY=0.5;entryDx=0;entryDy=0;fontSize=12;startSize=8;endSize=8;" edge="1" parent="1" source="WwEldn8JN8eeW2-9IUpF-13" target="WwEldn8JN8eeW2-9IUpF-14">
          <mxGeometry relative="1" as="geometry" />
        </mxCell>
        <mxCell id="WwEldn8JN8eeW2-9IUpF-13" value="生成访问令牌、刷新令牌" style="rounded=0;whiteSpace=wrap;html=1;" parent="1" vertex="1">
          <mxGeometry x="731" y="294.5" width="120" height="60" as="geometry" />
        </mxCell>
        <mxCell id="rJWWysvKdObHL5cOJZoD-6" style="edgeStyle=none;curved=1;rounded=0;orthogonalLoop=1;jettySize=auto;html=1;entryX=0;entryY=0.5;entryDx=0;entryDy=0;fontSize=12;startSize=8;endSize=8;" edge="1" parent="1" source="WwEldn8JN8eeW2-9IUpF-14" target="WwEldn8JN8eeW2-9IUpF-17">
          <mxGeometry relative="1" as="geometry" />
        </mxCell>
        <mxCell id="WwEldn8JN8eeW2-9IUpF-14" value="返回给前端" style="rounded=0;whiteSpace=wrap;html=1;" parent="1" vertex="1">
          <mxGeometry x="901" y="294.5" width="120" height="60" as="geometry" />
        </mxCell>
        <mxCell id="WwEldn8JN8eeW2-9IUpF-17" value="结束" style="rounded=1;whiteSpace=wrap;html=1;arcSize=50;" parent="1" vertex="1">
          <mxGeometry x="1070" y="299.5" width="123" height="50" as="geometry" />
        </mxCell>
      </root>
    </mxGraphModel>
  </diagram>
</mxfile>
